<svg id="Layer_1" data-name="Layer 1" xmlns="http://www.w3.org/2000/svg" viewBox="0 0 415 74"><defs><style>.cls-1{fill:#0067a6;}.cls-2{fill:#ee6f23;}</style></defs><title>planonuniverselogo</title><path class="cls-1" d="M28.59,30.58V43.14H45V35.65H65.65c5,0,9.73-1.64,12.15-5.07H28.59"/><path class="cls-1" d="M45,27.84V21.11H58.41A4.19,4.19,0,0,1,62.82,25a3.7,3.7,0,0,1-1.37,2.82H79.09a10.72,10.72,0,0,0,.42-3c0-7.36-6.56-10.79-13.87-10.79H28.59V27.84H45"/><rect class="cls-1" x="85.64" y="14.07" width="16.37" height="13.77"/><polyline class="cls-1" points="102 30.58 85.64 30.58 85.64 43.14 126.36 43.14 126.36 36.85 102 36.85 102 30.58"/><polyline class="cls-1" points="166.71 30.58 168.11 32.96 153.14 32.96 154.54 30.58 138.29 30.58 130.56 43.14 147.17 43.14 149.93 38.44 171.32 38.44 174.07 43.14 190.69 43.14 182.96 30.58 166.71 30.58"/><polyline class="cls-1" points="156.14 27.84 160.63 20.2 165.11 27.84 181.27 27.84 172.79 14.07 148.47 14.07 139.98 27.84 156.14 27.84"/><polyline class="cls-1" points="211.82 27.84 211.82 20.97 216.96 27.84 233.89 27.84 223.48 14.07 196.06 14.07 196.06 27.84 211.82 27.84"/><rect class="cls-1" x="240.27" y="14.07" width="15.75" height="13.77"/><rect class="cls-1" x="196.06" y="30.58" width="15.75" height="12.56"/><polyline class="cls-1" points="240.27 30.58 240.27 36.27 235.96 30.58 219.01 30.58 228.4 43.14 256.02 43.14 256.02 30.58 240.27 30.58"/><polyline class="cls-1" points="340.94 27.84 340.94 20.97 346.08 27.84 363.01 27.84 352.59 14.07 325.18 14.07 325.18 27.84 340.94 27.84"/><rect class="cls-1" x="369.38" y="14.07" width="15.75" height="13.77"/><rect class="cls-1" x="325.18" y="30.58" width="15.76" height="12.56"/><polyline class="cls-1" points="369.38 30.58 369.38 36.27 365.08 30.58 348.12 30.58 357.51 43.14 385.14 43.14 385.14 30.58 369.38 30.58"/><path class="cls-1" d="M288.48,14.53h-3c-11.64,0-17.21,1.74-20.47,4s-3.11,6.29-3.11,8v1.38h15.62V20.1h11V14.53"/><path class="cls-1" d="M314.5,18.51c-3.25-2.24-8.82-4-20.45-4h-2.83V20.1h10.92v7.75h15.48V26.46c0-1.66.14-5.71-3.11-8"/><path class="cls-1" d="M288.48,38.17h-11v-7.6H261.86v1.74c0,1.66-.14,5.71,3.11,8s8.82,4,20.47,4h3V38.17"/><path class="cls-1" d="M302.13,30.58v7.6H291.21v6.07H294c11.63,0,17.2-1.74,20.45-4s3.11-6.29,3.11-8V30.58H302.13"/><path class="cls-1" d="M85.64,27.84H79.09a9.16,9.16,0,0,1-1.29,2.73h7.84V27.84"/><path class="cls-1" d="M317.61,27.84v2.73h7.57V27.84h-7.57"/><polyline class="cls-1" points="139.98 27.84 102 27.84 102 30.58 138.29 30.58 139.98 27.84"/><polyline class="cls-1" points="233.89 27.84 235.96 30.58 240.27 30.58 240.27 27.84 233.89 27.84"/><polyline class="cls-1" points="363.01 27.84 365.08 30.58 369.38 30.58 369.38 27.84 363.01 27.84"/><polyline class="cls-1" points="156.14 27.84 154.54 30.58 166.71 30.58 165.11 27.84 156.14 27.84"/><rect class="cls-1" x="277.49" y="27.84" width="24.65" height="2.73"/><rect class="cls-1" x="-0.39" y="27.84" width="28.97" height="2.73"/><polyline class="cls-1" points="340.94 27.84 340.94 30.58 348.12 30.58 346.08 27.84 340.94 27.84"/><rect class="cls-1" x="385.14" y="27.84" width="29.23" height="2.73"/><path class="cls-1" d="M261.86,29.42V27.84H256v2.73h5.85V29.42"/><polyline class="cls-1" points="216.96 27.84 211.82 27.84 211.82 30.58 219.01 30.58 216.96 27.84"/><polyline class="cls-1" points="196.06 27.84 181.27 27.84 182.96 30.58 196.06 30.58 196.06 27.84"/><polyline class="cls-1" points="289.7 14.53 291.21 14.53 291.21 0.02 288.48 0.02 288.48 14.53 289.7 14.53"/><rect class="cls-1" x="288.48" y="20.1" width="2.73" height="18.08"/><polyline class="cls-1" points="289.78 44.24 288.48 44.24 288.48 74.33 291.21 74.33 291.21 44.24 289.78 44.24"/><path class="cls-2" d="M184.22,74.44a5.14,5.14,0,0,1-5.61-5.76V61.26h2.85V68.6a3.43,3.43,0,0,0,.74,2.4,2.66,2.66,0,0,0,2.06.81,2.7,2.7,0,0,0,2.06-.78,3.27,3.27,0,0,0,.74-2.33V61.26h2.85v7.32a7.53,7.53,0,0,1-.4,2.58A4.86,4.86,0,0,1,188.37,73a4.67,4.67,0,0,1-1.8,1.09A7.26,7.26,0,0,1,184.22,74.44Z"/><path class="cls-2" d="M193,61.26h2.63l6.08,8v-8h2.82v13H202.1L195.82,66v8.25H193v-13Z"/><path class="cls-2" d="M208,61.26h2.85v13H208v-13Z"/><path class="cls-2" d="M213.13,61.26h3.15l3.39,9.13,3.39-9.13h3.08l-5.24,13.06h-2.52Z"/><path class="cls-2" d="M228.32,61.26h9.76V63.8h-6.95v2.63h6.11V69h-6.11V71.7h7v2.54h-9.86v-13Z"/><path class="cls-2" d="M240.92,61.26h5.93a5.11,5.11,0,0,1,3.78,1.31,4,4,0,0,1,1.11,3v0a4.07,4.07,0,0,1-.77,2.57,4.46,4.46,0,0,1-2,1.46l3.17,4.63h-3.34L246,70.08h-2.24v4.15h-2.85v-13Zm5.74,6.3a2.37,2.37,0,0,0,1.62-.5,1.69,1.69,0,0,0,.57-1.33v0a1.66,1.66,0,0,0-.59-1.39,2.62,2.62,0,0,0-1.65-.46h-2.84v3.72h2.89Z"/><path class="cls-2" d="M259.13,74.42a8.61,8.61,0,0,1-2.91-.51,7.72,7.72,0,0,1-2.59-1.57l1.69-2a8.48,8.48,0,0,0,1.83,1.15,4.88,4.88,0,0,0,2,.43,2.49,2.49,0,0,0,1.38-.32,1,1,0,0,0,.49-0.9v0a1.11,1.11,0,0,0-.1-0.49,1,1,0,0,0-.39-0.4,4,4,0,0,0-.8-0.37q-0.51-.18-1.33-0.39a16.17,16.17,0,0,1-1.78-.54,5,5,0,0,1-1.36-.73,3,3,0,0,1-.86-1.08,3.77,3.77,0,0,1-.31-1.61v0a3.76,3.76,0,0,1,.33-1.6,3.64,3.64,0,0,1,.93-1.23,4.18,4.18,0,0,1,1.43-.8,5.73,5.73,0,0,1,1.83-.28,7.75,7.75,0,0,1,2.62.43,7.6,7.6,0,0,1,2.2,1.22L262,64.88a9.46,9.46,0,0,0-1.7-.94,4.36,4.36,0,0,0-1.67-.34,2,2,0,0,0-1.25.32,1,1,0,0,0-.42.81v0a1.17,1.17,0,0,0,.12.55,1.08,1.08,0,0,0,.44.42,4.14,4.14,0,0,0,.86.35l1.38,0.39a13.5,13.5,0,0,1,1.76.58,4.91,4.91,0,0,1,1.3.78,3,3,0,0,1,.8,1.06,3.62,3.62,0,0,1,.27,1.46v0a4,4,0,0,1-.35,1.71,3.5,3.5,0,0,1-1,1.26,4.4,4.4,0,0,1-1.49.78A6.51,6.51,0,0,1,259.13,74.42Z"/><path class="cls-2" d="M266.55,61.26h9.76V63.8h-6.95v2.63h6.11V69h-6.11V71.7h7v2.54h-9.86v-13Z"/></svg>