<?xml version="1.0" encoding="utf-8"?>
<!-- Generator: Adobe Illustrator 23.0.0, SVG Export Plug-In . SVG Version: 6.00 Build 0)  -->
<svg version="1.1" id="Ebene_1" xmlns="http://www.w3.org/2000/svg" xmlns:xlink="http://www.w3.org/1999/xlink" x="0px" y="0px"
	 viewBox="0 0 660.88 660.88" style="enable-background:new 0 0 660.88 660.88;" xml:space="preserve">
<style type="text/css">
	.st0{display:none;fill:#FFFFFF;}
	.st1{fill:#EC6907;}
	.st2{display:none;}
	.st3{display:inline;fill:#EC6907;}
	.st4{display:inline;fill:#FFFFFF;}
	.st5{fill:#1E499A;}
</style>
<g>
	<g>
		<circle class="st0" cx="330.44" cy="330.44" r="105.43"/>
		<path class="st1" d="M330.44,225.01c58.23,0,105.43,47.2,105.43,105.43s-47.2,105.43-105.43,105.43
			c-58.23,0-105.43-47.2-105.43-105.43S272.21,225.01,330.44,225.01 M330.44,213.69c-15.76,0-31.05,3.09-45.45,9.18
			c-13.9,5.88-26.39,14.3-37.11,25.02c-10.72,10.72-19.13,23.2-25.02,37.11c-6.09,14.4-9.18,29.69-9.18,45.45
			c0,15.76,3.09,31.05,9.18,45.45c5.88,13.9,14.3,26.39,25.02,37.11c10.72,10.72,23.2,19.13,37.11,25.02
			c14.4,6.09,29.69,9.18,45.45,9.18s31.05-3.09,45.45-9.18c13.9-5.88,26.39-14.3,37.11-25.02c10.72-10.72,19.13-23.2,25.02-37.11
			c6.09-14.4,9.18-29.69,9.18-45.45c0-15.76-3.09-31.05-9.18-45.45c-5.88-13.9-14.3-26.39-25.02-37.11
			c-10.72-10.72-23.2-19.13-37.11-25.02C361.49,216.78,346.2,213.69,330.44,213.69L330.44,213.69z"/>
	</g>
	<g class="st2">
		<circle class="st3" cx="330.44" cy="278.96" r="65.27"/>
		<circle class="st4" cx="345.88" cy="298.76" r="40.17"/>
	</g>
	<path class="st1" d="M305.72,298.76c0-22.18,17.98-40.17,40.17-40.17s40.17,17.98,40.17,40.17c0,12.39-5.62,23.47-14.44,30.84
		c14.7-11.97,24.1-30.2,24.1-50.64c0-36.05-29.22-65.27-65.27-65.27c-36.05,0-65.27,29.22-65.27,65.27s29.22,65.27,65.27,65.27
		c14.75,0,28.35-4.9,39.28-13.15c-6.67,4.93-14.91,7.84-23.84,7.84C323.7,338.93,305.72,320.95,305.72,298.76z"/>
</g>
<g>
</g>
<g>
</g>
<g>
</g>
<g>
</g>
<g>
</g>
<g>
</g>
</svg>
