<?xml version="1.0" encoding="utf-8"?>
<!-- Generator: Adobe Illustrator 23.0.0, SVG Export Plug-In . SVG Version: 6.00 Build 0)  -->
<svg version="1.1" id="Ebene_1" xmlns="http://www.w3.org/2000/svg" xmlns:xlink="http://www.w3.org/1999/xlink" x="0px" y="0px"
	 viewBox="0 0 957.71 274.08" style="enable-background:new 0 0 957.71 274.08;" xml:space="preserve">
<style type="text/css">
	.st0{display:none;fill:#FFFFFF;}
	.st1{fill:#FFFFFF;}
	.st2{display:none;}
	.st3{display:inline;fill:#FFFFFF;}
</style>
<g>
	<g>
		<circle class="st0" cx="146.57" cy="137.04" r="105.43"/>
		<path class="st1" d="M146.57,31.61c58.23,0,105.43,47.2,105.43,105.43s-47.2,105.43-105.43,105.43S41.14,195.27,41.14,137.04
			S88.34,31.61,146.57,31.61 M146.57,20.29c-15.76,0-31.05,3.09-45.45,9.18c-13.9,5.88-26.39,14.3-37.11,25.02
			C53.3,65.21,44.89,77.69,39,91.59c-6.09,14.4-9.18,29.69-9.18,45.45s3.09,31.05,9.18,45.45c5.88,13.9,14.3,26.39,25.02,37.11
			c10.72,10.72,23.2,19.13,37.11,25.02c14.4,6.09,29.69,9.18,45.45,9.18s31.05-3.09,45.45-9.18c13.9-5.88,26.39-14.3,37.11-25.02
			c10.72-10.72,19.13-23.2,25.02-37.11c6.09-14.4,9.18-29.69,9.18-45.45s-3.09-31.05-9.18-45.45c-5.88-13.9-14.3-26.39-25.02-37.11
			c-10.72-10.72-23.2-19.13-37.11-25.02C177.62,23.38,162.33,20.29,146.57,20.29L146.57,20.29z"/>
	</g>
	<g class="st2">
		<circle class="st3" cx="146.57" cy="85.56" r="65.27"/>
		<circle class="st3" cx="162.01" cy="105.36" r="40.17"/>
	</g>
	<path class="st1" d="M121.85,105.36c0-22.18,17.98-40.17,40.17-40.17s40.17,17.98,40.17,40.17c0,12.39-5.62,23.47-14.44,30.84
		c14.7-11.97,24.1-30.2,24.1-50.64c0-36.05-29.22-65.27-65.27-65.27c-36.05,0-65.27,29.22-65.27,65.27s29.22,65.27,65.27,65.27
		c14.75,0,28.35-4.9,39.28-13.15c-6.67,4.93-14.91,7.84-23.84,7.84C139.83,145.53,121.85,127.54,121.85,105.36z"/>
</g>
<g>
	<path class="st1" d="M368.65,153.62h-27.12v55.27H317.2V65.2h49.23c16.15,0,28.62,3.72,37.41,11.16
		c8.78,7.44,13.17,18.21,13.17,32.3c0,9.62-2.26,17.66-6.78,24.15c-4.52,6.49-10.82,11.47-18.9,14.96l31.44,59.84v1.28h-26.06
		L368.65,153.62z M341.53,133.49h25c8.2,0,14.62-2.12,19.23-6.36c4.62-4.24,6.92-10.05,6.92-17.42c0-7.7-2.13-13.65-6.4-17.86
		c-4.26-4.21-10.62-6.38-19.09-6.51h-25.67V133.49z"/>
	<path class="st1" d="M519.31,144.74h-60.83v44.21h70.54v19.93h-94.87V65.2h94.19v20.13h-69.87V125h60.83V144.74z"/>
	<path class="st1" d="M630.17,175.43h-54.23l-11.35,33.46H539.3L592.19,65.2h21.83l52.98,143.69h-25.39L630.17,175.43z
		 M582.76,155.3h40.58l-20.29-59.61L582.76,155.3z"/>
	<path class="st1" d="M702.56,188.95h70.73v19.93h-95.06V65.2h24.33V188.95z"/>
	<path class="st1" d="M819.61,65.2L860,175.33L900.29,65.2h27.6v143.69h-24.23v-47.37l2.4-63.36l-37.5,110.73h-17.4L809.9,98.25
		l2.41,63.26v47.37h-24.23V65.2H819.61z"/>
</g>
<g>
</g>
<g>
</g>
<g>
</g>
<g>
</g>
<g>
</g>
<g>
</g>
</svg>
