<?xml version="1.0" encoding="utf-8"?>
<!-- Generator: Adobe Illustrator 23.0.0, SVG Export Plug-In . SVG Version: 6.00 Build 0)  -->
<svg version="1.1" id="Ebene_1" xmlns="http://www.w3.org/2000/svg" xmlns:xlink="http://www.w3.org/1999/xlink" x="0px" y="0px"
	 viewBox="0 0 660.88 660.88" style="enable-background:new 0 0 660.88 660.88;" xml:space="preserve">
<style type="text/css">
	.st0{display:none;fill:#010202;}
	.st1{fill:#010202;}
	.st2{display:none;}
	.st3{display:inline;fill:#010202;}
</style>
<g>
	<g>
		<circle class="st0" cx="330.44" cy="330.44" r="105.43"/>
		<path class="st1" d="M330.44,225.01c58.23,0,105.43,47.2,105.43,105.43s-47.2,105.43-105.43,105.43
			c-58.23,0-105.43-47.2-105.43-105.43S272.21,225.01,330.44,225.01 M330.44,213.69c-15.76,0-31.05,3.09-45.45,9.18
			c-13.9,5.88-26.39,14.3-37.11,25.02c-10.72,10.72-19.13,23.2-25.02,37.11c-6.09,14.4-9.18,29.69-9.18,45.45
			c0,15.76,3.09,31.05,9.18,45.45c5.88,13.9,14.3,26.39,25.02,37.11c10.72,10.72,23.2,19.13,37.11,25.02
			c14.4,6.09,29.69,9.18,45.45,9.18s31.05-3.09,45.45-9.18c13.9-5.88,26.39-14.3,37.11-25.02c10.72-10.72,19.13-23.2,25.02-37.11
			c6.09-14.4,9.18-29.69,9.18-45.45c0-15.76-3.09-31.05-9.18-45.45c-5.88-13.9-14.3-26.39-25.02-37.11
			c-10.72-10.72-23.2-19.13-37.11-25.02C361.49,216.78,346.2,213.69,330.44,213.69L330.44,213.69z"/>
	</g>
	<g class="st2">
		<circle class="st3" cx="330.44" cy="278.96" r="65.27"/>
		<circle class="st3" cx="345.88" cy="298.76" r="40.17"/>
	</g>
	<path class="st1" d="M305.72,298.76c0-22.18,17.98-40.17,40.17-40.17s40.17,17.98,40.17,40.17c0,12.39-5.62,23.47-14.44,30.84
		c14.7-11.97,24.1-30.2,24.1-50.64c0-36.05-29.22-65.27-65.27-65.27c-36.05,0-65.27,29.22-65.27,65.27s29.22,65.27,65.27,65.27
		c14.75,0,28.35-4.9,39.28-13.15c-6.67,4.93-14.91,7.84-23.84,7.84C323.7,338.93,305.72,320.95,305.72,298.76z"/>
</g>
<g>
	<path class="st1" d="M76.55,580.52H49.43v55.27H25.1V492.09h49.23c16.15,0,28.62,3.72,37.41,11.16
		c8.78,7.44,13.17,18.21,13.17,32.3c0,9.61-2.26,17.66-6.78,24.15c-4.52,6.49-10.82,11.47-18.9,14.96l31.44,59.84v1.28h-26.06
		L76.55,580.52z M49.43,560.38h25c8.2,0,14.62-2.12,19.23-6.36c4.62-4.24,6.92-10.05,6.92-17.42c0-7.7-2.13-13.65-6.4-17.86
		c-4.26-4.21-10.62-6.38-19.09-6.51H49.43V560.38z"/>
	<path class="st1" d="M227.2,571.64h-60.83v44.21h70.54v19.93h-94.87V492.09h94.19v20.13h-69.87v39.67h60.83V571.64z"/>
	<path class="st1" d="M338.07,602.33h-54.23l-11.35,33.46H247.2l52.89-143.69h21.83l52.98,143.69h-25.39L338.07,602.33z
		 M290.66,582.19h40.58l-20.29-59.61L290.66,582.19z"/>
	<path class="st1" d="M410.46,615.85h70.73v19.93h-95.06V492.09h24.33V615.85z"/>
	<path class="st1" d="M527.51,492.09l40.39,110.14l40.29-110.14h27.6v143.69h-24.23v-47.37l2.4-63.36l-37.5,110.73h-17.4
		L517.8,525.15l2.41,63.26v47.37h-24.23V492.09H527.51z"/>
</g>
<g>
</g>
<g>
</g>
<g>
</g>
<g>
</g>
<g>
</g>
<g>
</g>
</svg>
